<?xml version="1.0" encoding="utf-8"?> <!-- Generator: IcoMoon.io --> <!DOCTYPE svg PUBLIC "-//W3C//DTD SVG 1.1//EN" "http://www.w3.org/Graphics/SVG/1.1/DTD/svg11.dtd"> <svg fill="#000000" xmlns:xlink="http://www.w3.org/1999/xlink" xmlns="http://www.w3.org/2000/svg" width="16" height="16" viewBox="0 0 16 16"><g><path d="M 13.657,2.343 C 15.168,3.854 16,5.863 16,8 C 16,10.137 15.168,12.146 13.657,13.657 C 12.146,15.168 10.137,16 8,16 C 5.863,16 3.854,15.168 2.343,13.657 C 0.832,12.146 0,10.137 0,8 C 0,5.863 0.832,3.854 2.343,2.343 C 3.854,0.832 5.863,0 8,0 C 10.137,0 12.146,0.832 13.657,2.343 Z M 12.95,12.95 C 13.935,11.964 14.59,10.737 14.86,9.402 C 14.65,9.712 14.448,9.827 14.324,9.133 C 14.195,8.002 13.156,8.725 12.503,8.323 C 11.816,8.786 10.27,7.422 10.533,8.961 C 10.938,9.655 12.72,8.032 11.832,9.5 C 11.265,10.526 9.759,12.796 9.955,13.973 C 9.98,15.688 8.203,14.331 7.591,13.762 C 7.179,12.623 7.451,10.631 6.374,10.073 C 5.205,10.022 4.202,9.916 3.749,8.609 C 3.476,7.675 4.039,6.283 5.041,6.068 C 6.507,5.147 7.031,7.147 8.406,7.184 C 8.833,6.738 9.997,6.595 10.094,6.094 C 9.191,5.935 11.238,5.336 10.007,4.995 C 9.328,5.075 8.89,5.699 9.252,6.228 C 7.935,6.535 7.893,4.324 6.628,5.021 C 6.596,6.124 4.562,5.379 5.924,5.155 C 6.392,4.951 5.161,4.358 5.826,4.466 C 6.153,4.448 7.253,4.063 6.955,3.803 C 7.568,3.423 8.083,4.714 8.683,3.774 C 9.116,3.051 8.501,2.917 7.958,3.284 C 7.652,2.941 8.499,2.201 9.245,1.882 C 9.494,1.775 9.731,1.717 9.913,1.734 C 10.289,2.168 10.984,2.243 11.020,1.681 C 10.089,1.236 9.063,1 8,1 C 6.475,1 5.024,1.485 3.823,2.381 C 4.146,2.529 4.329,2.713 4.018,2.948 C 3.777,3.668 2.797,4.634 1.937,4.497 C 1.49,5.267 1.196,6.116 1.070,7.005 C 1.791,7.244 1.957,7.715 1.802,7.873 C 1.435,8.193 1.209,8.647 1.093,9.144 C 1.327,10.579 2.002,11.901 3.050,12.95 C 4.372,14.272 6.13,15 8,15 C 9.87,15 11.628,14.272 12.95,12.95 Z"></path></g></svg>